<svg width="19" height="27" viewBox="0 0 19 27" fill="none" xmlns="http://www.w3.org/2000/svg">
<path d="M18.0239 25.6586H17.5365C17.5365 25.6534 17.5341 25.6483 17.5331 25.6434L17.5197 25.5838C17.5112 25.5446 17.502 25.5057 17.4924 25.4671C17.4883 25.449 17.4839 25.4308 17.4794 25.4127C17.4668 25.3618 17.4534 25.3109 17.4398 25.2601L17.4357 25.2455C17.4206 25.1904 17.4049 25.1355 17.3885 25.0809L17.3721 25.0281C17.3608 24.9905 17.3488 24.9532 17.3379 24.9159C17.3314 24.8955 17.3246 24.8754 17.3181 24.8553C17.3061 24.8194 17.2938 24.7834 17.2812 24.7478C17.2747 24.729 17.2678 24.7098 17.2613 24.6914C17.2454 24.6467 17.229 24.6023 17.2121 24.5582C17.2084 24.5488 17.2053 24.5397 17.2015 24.5303C17.1817 24.4785 17.1609 24.427 17.1397 24.3754C17.1321 24.3566 17.1243 24.3382 17.1164 24.3197C17.1021 24.2873 17.0877 24.2517 17.073 24.218L17.0453 24.1554C17.031 24.123 17.0163 24.0906 17.0012 24.0582C16.992 24.0381 16.9824 24.0177 16.9729 23.9976C16.9554 23.9603 16.9387 23.9234 16.9192 23.8868C16.912 23.8728 16.9055 23.8586 16.8984 23.8443C16.8741 23.7961 16.8491 23.7471 16.8238 23.7005L16.7897 23.6399L16.7415 23.552L16.7039 23.4872C16.6882 23.46 16.6724 23.4328 16.6564 23.4056C16.6437 23.3835 16.6307 23.3615 16.6177 23.3408C16.6 23.3113 16.5836 23.2824 16.5641 23.2533L16.5149 23.1742C16.4916 23.1379 16.4684 23.1013 16.4445 23.0653C16.4294 23.0427 16.4144 23.0203 16.399 22.9979C16.3836 22.9756 16.3669 22.95 16.3505 22.9263C16.3341 22.9027 16.3163 22.879 16.3012 22.8557C16.2862 22.8324 16.2698 22.8113 16.2537 22.7909C16.2377 22.7705 16.2196 22.7432 16.2021 22.7196L16.1539 22.6548C16.1197 22.6117 16.0883 22.5686 16.0548 22.5252L16.008 22.4659C15.9882 22.4409 15.9676 22.4163 15.9475 22.3917L15.9024 22.3372C15.8815 22.3123 15.8603 22.2876 15.8391 22.2627L15.7947 22.2115L15.7284 22.1363L15.6891 22.0929C15.6074 22.0031 15.5237 21.9147 15.4379 21.8285L15.4003 21.7906L15.3217 21.7138L15.283 21.6768C15.2557 21.6506 15.2283 21.6247 15.2007 21.5991L15.1723 21.5731C15.0756 21.484 14.9761 21.3972 14.8749 21.3139L14.8472 21.2909C14.816 21.265 14.7846 21.2394 14.7529 21.2141L14.7215 21.1888C14.6873 21.1629 14.6562 21.1373 14.623 21.1117L14.6063 21.0991C14.4945 21.0135 14.38 20.9302 14.2645 20.8502L14.2484 20.8389C14.2118 20.8139 14.1753 20.7893 14.1384 20.765L14.1141 20.7491C14.0765 20.7241 14.0386 20.6998 14.0006 20.6755L13.9941 20.6717C13.8683 20.5919 13.7402 20.5156 13.6096 20.4426L13.6045 20.4393C13.5631 20.4163 13.5218 20.3939 13.4804 20.3716L13.4623 20.3619C13.2422 20.2441 13.0161 20.1361 12.7842 20.0378L12.7698 20.0317C12.7086 20.0058 12.6471 19.9808 12.5849 19.9562H13.8082C14.0075 19.9562 14.1691 19.7387 14.1691 19.4701C14.1691 19.2015 14.0075 18.9841 13.8082 18.9841H13.4438C13.4664 18.9296 13.4913 18.868 13.5183 18.7987C13.8629 18.5952 14.4692 18.1616 15.0708 17.3651L15.0756 17.359C15.1211 17.2994 15.1659 17.2377 15.2099 17.174L15.2188 17.1613C15.2625 17.0988 15.3063 17.0343 15.3493 16.9669L15.361 16.9491C15.3815 16.9167 15.402 16.8843 15.4225 16.8519C15.4225 16.8519 15.4225 16.8493 15.4249 16.8477C15.4461 16.8153 15.4669 16.7796 15.4878 16.7449L15.5011 16.7226C15.5189 16.6928 15.537 16.6623 15.5544 16.6315C15.5578 16.626 15.5613 16.6205 15.5643 16.6147C15.5845 16.5797 15.6047 16.544 15.6245 16.5081L15.6382 16.4831C15.6546 16.4533 15.6706 16.4232 15.6867 16.3927C15.6915 16.3843 15.6963 16.3755 15.7007 16.3668C15.7198 16.3302 15.739 16.2932 15.7581 16.2556L15.7715 16.2294C15.7865 16.1989 15.8019 16.1678 15.8169 16.1367L15.8333 16.1043C15.8518 16.0661 15.8699 16.0272 15.888 15.988L15.8993 15.963C15.9143 15.9306 15.929 15.8982 15.9437 15.8658L15.9612 15.8269C15.9782 15.7877 15.9953 15.7482 16.0117 15.7083C16.0148 15.7012 16.0179 15.6937 16.0206 15.6866C16.036 15.65 16.0511 15.6127 16.0661 15.5751L16.0832 15.5324C16.0972 15.4967 16.1112 15.4608 16.1249 15.4248L16.1351 15.3976C16.1512 15.3548 16.1669 15.3111 16.1826 15.268L16.199 15.2219C16.2114 15.1876 16.2233 15.1526 16.2353 15.1176C16.2397 15.1046 16.2442 15.0917 16.2483 15.0787C16.2633 15.034 16.2783 14.9883 16.293 14.9426C16.2978 14.9267 16.3029 14.9102 16.3077 14.8953L16.3419 14.7887C16.3464 14.7732 16.3511 14.7563 16.3556 14.7424C16.3696 14.6954 16.3836 14.6474 16.3969 14.5991C16.4014 14.5839 16.4055 14.5684 16.4096 14.5528C16.4198 14.5155 16.4301 14.4783 16.44 14.4404C16.4445 14.4232 16.4489 14.406 16.4537 14.3888C16.4663 14.3389 16.479 14.2887 16.4913 14.2378L16.5015 14.1954C16.5111 14.1549 16.5207 14.114 16.5299 14.0729L16.5422 14.0178C16.5538 13.965 16.5654 13.9122 16.5764 13.8584C16.5788 13.848 16.5808 13.8373 16.5829 13.826C16.5925 13.7796 16.6017 13.7327 16.6106 13.6857C16.6143 13.6666 16.6177 13.6474 16.6215 13.6283C16.6304 13.58 16.6389 13.5311 16.6475 13.4828C16.6492 13.4725 16.6512 13.4624 16.6529 13.4524C16.6625 13.3953 16.6719 13.3379 16.681 13.28C16.6841 13.2605 16.6871 13.2411 16.6899 13.2213C16.697 13.1743 16.7039 13.127 16.7107 13.0791L16.7169 13.035C16.7251 12.9754 16.7329 12.9154 16.7404 12.8545C16.7428 12.8354 16.7449 12.8163 16.7473 12.7968C16.7532 12.7484 16.7587 12.6998 16.7637 12.651C16.7657 12.6335 16.7678 12.6163 16.7695 12.5988C16.7761 12.5362 16.7823 12.473 16.788 12.4093C16.788 12.3915 16.791 12.3736 16.7924 12.3555C16.7968 12.3043 16.8013 12.2528 16.805 12.2009C16.805 12.1818 16.8081 12.1627 16.8095 12.1436C16.8143 12.0775 16.8187 12.0109 16.8228 11.944C16.8228 11.9287 16.8228 11.9115 16.8252 11.8979C16.8283 11.8422 16.8314 11.7861 16.8338 11.7298C16.8338 11.7093 16.8338 11.6889 16.8365 11.6685C16.8392 11.5989 16.842 11.5289 16.844 11.4579C16.844 11.4482 16.844 11.4381 16.844 11.4281C16.8458 11.365 16.8472 11.3013 16.8481 11.2369C16.8481 11.2158 16.8481 11.1948 16.8481 11.1737C16.8481 11.1046 16.8481 11.035 16.8481 10.965V10.9488C16.8481 10.8743 16.8481 10.7988 16.8481 10.722V10.6572C16.8481 10.5924 16.8454 10.5243 16.8437 10.4569V10.4203C16.8413 10.3425 16.8382 10.2638 16.8351 10.1847C16.8351 10.1643 16.8331 10.1436 16.8324 10.1232C16.8294 10.0566 16.826 9.98967 16.8221 9.92227C16.8221 9.90574 16.8221 9.88986 16.8194 9.87204C16.8146 9.79103 16.8094 9.70937 16.8037 9.62707L16.7996 9.56971C16.7945 9.50101 16.7893 9.43199 16.7835 9.36232C16.7835 9.34223 16.7804 9.32214 16.7787 9.30205C16.7716 9.2178 16.7637 9.13258 16.7555 9.04703C16.7555 9.03083 16.7521 9.01463 16.7507 8.9981C16.7435 8.92519 16.7357 8.85164 16.7278 8.77743C16.7254 8.75507 16.723 8.73304 16.7203 8.71068C16.7107 8.62254 16.7005 8.53408 16.6895 8.44432C16.6895 8.4333 16.6864 8.42228 16.6851 8.41191C16.6753 8.33155 16.6649 8.25076 16.654 8.16953C16.6506 8.14555 16.6475 8.12158 16.6441 8.0976C16.6313 8.00557 16.6182 7.91278 16.6048 7.81924C15.2376 -1.40748 5.54905 0.0899114 5.54905 0.0899114L5.8594 2.07239L0 7.94076L0.256004 10.2068L2.47563 11.5029C2.57457 11.2645 2.70161 11.0374 2.85433 10.826C4.28645 9.25993 7.06491 8.03052 7.86026 7.7755C8.01954 7.72463 8.11012 7.69903 8.11012 7.69903C4.3056 12.3672 4.73831 17.7151 4.90784 18.9899C4.73147 19.0223 4.5951 19.2242 4.5951 19.4704C4.5951 19.7387 4.75676 19.9565 4.95603 19.9565H6.17932C4.14483 20.7639 2.5299 22.3015 1.6871 24.2338C1.68611 24.2365 1.68497 24.2391 1.68368 24.2416C1.62148 24.385 1.5636 24.5305 1.51005 24.6781C1.51015 24.6796 1.51015 24.6811 1.51005 24.6826C1.4957 24.7228 1.48169 24.763 1.46801 24.8035C1.46289 24.8181 1.45776 24.8327 1.45297 24.8476C1.44067 24.8839 1.42927 24.9205 1.41879 24.9574C1.41264 24.9762 1.40683 24.9953 1.40102 25.0141C1.39008 25.0488 1.37949 25.0838 1.36923 25.1188L1.35078 25.1836C1.34121 25.216 1.33164 25.2507 1.32275 25.2844C1.31626 25.3083 1.3101 25.332 1.30395 25.356C1.29575 25.3884 1.2872 25.4208 1.27934 25.4532C1.27148 25.4856 1.26396 25.518 1.25644 25.5523C1.24892 25.5867 1.23935 25.6269 1.23115 25.6645H0.743405C0.649613 25.6625 0.556355 25.6783 0.469101 25.711C0.381846 25.7437 0.302356 25.7925 0.235293 25.8547C0.16823 25.9169 0.114942 25.9912 0.0785645 26.0732C0.0421866 26.1552 0.0234484 26.2432 0.0234484 26.3322C0.0234484 26.4211 0.0421866 26.5091 0.0785645 26.5911C0.114942 26.6731 0.16823 26.7474 0.235293 26.8096C0.302356 26.8718 0.381846 26.9206 0.469101 26.9533C0.556355 26.986 0.649613 27.0018 0.743405 26.9998H18.03C18.1238 27.0018 18.2171 26.986 18.3043 26.9533C18.3916 26.9206 18.4711 26.8718 18.5382 26.8096C18.6052 26.7474 18.6585 26.6731 18.6949 26.5911C18.7313 26.5091 18.75 26.4211 18.75 26.3322C18.75 26.2432 18.7313 26.1552 18.6949 26.0732C18.6585 25.9912 18.6052 25.9169 18.5382 25.8547C18.4711 25.7925 18.3916 25.7437 18.3043 25.711C18.2171 25.6783 18.1238 25.6625 18.03 25.6645L18.0239 25.6586Z" fill="#595653"/>
</svg>
